# xmcd
#
# Track frame offsets: 
#        150
#        20314
#        40294
#        61191
#        84203
#        109559
#
# Disc length: 1935 seconds
#
# Revision: 0
# Processed by: cddbd v1.5.2PL0 Copyright (c) Steve Scherf et al.
# Submitted via: ExactAudioCopy v0.99pb4
#
DISCID=39078d06
DTITLE=Justin Klump - Something for September
DYEAR=2006
DGENRE=Acoustic
TTITLE0=Suspicion
TTITLE1=Not Your Own
TTITLE2=Actually
TTITLE3=Flood
TTITLE4=Silhouette
TTITLE5=Painter's Son
EXTD=
EXTT0=
EXTT1=
EXTT2=
EXTT3=
EXTT4=
EXTT5=
PLAYORDER=
